<?xml version="1.0"?>
<svg xmlns="http://www.w3.org/2000/svg" xmlns:xlink="http://www.w3.org/1999/xlink" xmlns:svgjs="http://svgjs.com/svgjs" version="1.1" width="512" height="512" x="0" y="0" viewBox="0 0 455.111 455.111" style="enable-background:new 0 0 512 512" xml:space="preserve" class=""><circle r="227.5555" cx="227.5555" cy="227.5555" fill="#818181" shape="circle"/><g transform="matrix(0.7,0,0,0.7,68.26679992675781,68.26664886474623)">
<path xmlns="http://www.w3.org/2000/svg" style="" d="M227.556,455.111C102.4,455.111,0,352.711,0,227.556S102.4,0,227.556,0  s227.556,102.4,227.556,227.556S352.711,455.111,227.556,455.111z" fill="#ffffff" data-original="#e24c4b" class=""/>
<path xmlns="http://www.w3.org/2000/svg" style="" d="M227.556,412.444c102.4,0,184.889-82.489,184.889-184.889S329.956,42.667,227.556,42.667  S42.667,125.156,42.667,227.556S125.156,412.444,227.556,412.444z" fill="#818181" data-original="#ffffff" class=""/>
<path xmlns="http://www.w3.org/2000/svg" style="" d="M366.933,106.667c-32.711-28.444-75.378-45.511-120.889-45.511  c-102.4,0-184.889,82.489-184.889,184.889c0,46.933,17.067,88.178,45.511,120.889c-39.822-34.133-64-83.911-64-139.378  c0-102.4,82.489-184.889,184.889-184.889C283.022,42.667,332.8,68.267,366.933,106.667z" fill="#818181" data-original="#e9eff4" class=""/>
<g xmlns="http://www.w3.org/2000/svg">
	<path style="" d="M86.756,227.556c0,7.111-5.689,11.378-11.378,11.378c-5.689,0-11.378-5.689-11.378-11.378   s5.689-11.378,11.378-11.378C81.067,216.178,86.756,220.444,86.756,227.556z" fill="#ffffff" data-original="#3f4448" class=""/>
	<path style="" d="M238.933,75.378c0,7.111-5.689,11.378-11.378,11.378c-7.111,0-11.378-5.689-11.378-11.378   c0-5.689,5.689-11.378,11.378-11.378C234.667,64,238.933,68.267,238.933,75.378z" fill="#ffffff" data-original="#3f4448" class=""/>
	<path style="" d="M391.111,227.556c0,7.111-5.689,11.378-11.378,11.378c-7.111,0-11.378-5.689-11.378-11.378   s5.689-11.378,11.378-11.378C386.844,216.178,391.111,220.444,391.111,227.556z" fill="#ffffff" data-original="#3f4448" class=""/>
	<path style="" d="M238.933,379.733c0,5.689-5.689,11.378-11.378,11.378c-7.111,0-11.378-5.689-11.378-11.378   c0-7.111,5.689-11.378,11.378-11.378C234.667,368.356,238.933,374.044,238.933,379.733z" fill="#ffffff" data-original="#3f4448" class=""/>
</g>
<path xmlns="http://www.w3.org/2000/svg" style="" d="M237.511,237.511c-7.111,0-12.8-4.267-12.8-9.956c0-5.689,5.689-9.956,12.8-9.956l112.356,4.267  c2.844,0,5.689,2.844,5.689,5.689c0,2.844-2.844,5.689-5.689,5.689L237.511,237.511z" fill="#ffffff" data-original="#fed93d" class=""/>
<path xmlns="http://www.w3.org/2000/svg" style="" d="M237.511,228.978l-4.267-106.667c0-2.844-2.844-5.689-5.689-5.689c-2.844,0-5.689,2.844-5.689,5.689  L217.6,228.978H237.511z" fill="#ffffff" data-original="#6dafe0" class=""/>
<circle xmlns="http://www.w3.org/2000/svg" style="" cx="227.556" cy="227.556" r="31.289" fill="#ffffff" data-original="#5b6064" class=""/>
<circle xmlns="http://www.w3.org/2000/svg" style="" cx="227.556" cy="227.556" r="17.067" fill="#ffffff" data-original="#3f4448" class=""/>
<g xmlns="http://www.w3.org/2000/svg">
</g>
<g xmlns="http://www.w3.org/2000/svg">
</g>
<g xmlns="http://www.w3.org/2000/svg">
</g>
<g xmlns="http://www.w3.org/2000/svg">
</g>
<g xmlns="http://www.w3.org/2000/svg">
</g>
<g xmlns="http://www.w3.org/2000/svg">
</g>
<g xmlns="http://www.w3.org/2000/svg">
</g>
<g xmlns="http://www.w3.org/2000/svg">
</g>
<g xmlns="http://www.w3.org/2000/svg">
</g>
<g xmlns="http://www.w3.org/2000/svg">
</g>
<g xmlns="http://www.w3.org/2000/svg">
</g>
<g xmlns="http://www.w3.org/2000/svg">
</g>
<g xmlns="http://www.w3.org/2000/svg">
</g>
<g xmlns="http://www.w3.org/2000/svg">
</g>
<g xmlns="http://www.w3.org/2000/svg">
</g>
</g></svg>
